# xmcd
#
# Track frame offsets:
#	150
#	15528
#	27998
#	45188
#	62074
#
# Disc length: 1060 seconds
#
# Revision: 1
# Processed by: cddbd v1.4b41PL1 Copyright (c) Steve Scherf et al.
# Submitted via: audiograbber 1.80
#
DISCID=31042205
DTITLE=Spencer Band - This Is Now
DYEAR=1900
DGENRE=
TTITLE0=That Was Then, This Is Now
TTITLE1=He's Taking Candy From My Baby
TTITLE2=Years We Knew
TTITLE3=Following The Feeling
TTITLE4=She'll Be OK
EXTD=Australian Band:\nPam Spencer\nKevin Spencer\nBill Baldwin\n
EXTT0=Richard Porteous
EXTT1=Pixie Jenkins/Allan Caswell
EXTT2=Pam Spencer/Hellen Pollock/Bill Baldwin
EXTT3=C. Craig
EXTT4=Brenda Lee-Heathcote
PLAYORDER=
